<?xml-stylesheet type="text/css" href="../../css/main.css"?>

<svg width="0" height="0" class="hidden">

  <symbol xmlns="http://www.w3.org/2000/svg" viewBox="0 0 54 72" id="Logo">
    <g>
      <g>
        <path class="beetroot" d="M29.714 52.981c-.508 5.558-1.54 10.445-3.419 14.717-.623 1.416-1.756 2.767-2.279 4.302h-.228v-1.132c.428-.665.219-1.575.456-2.49 1.128-4.358 1.213-10.171-.684-13.812-3.24-6.221-9.728-4.128-16.181-6.793-2.528-1.043-4.385-3.19-5.698-5.434L.313 38.49c-.716-2.705-.062-6.199.684-8.15 3.107-8.132 10.872-11.71 20.284-7.246v-.68c-.807-1.095-.545-2.732-.912-4.3C19.384 13.893 18.625.046 23.332 0c1.277.926 3.73.885 3.875 2.943-.376.405-.398.569-.456 1.359h.228v-.227c.98-1.03 1.25-3.37 2.963-3.622 1.368 1.22 3.683 1.463 4.102 3.622-1.142 1.446-2.269 3.974-2.735 5.887h.456c1.428-1.877 7.312-7.25 10.028-6.792.804 1.291 1.634 2.568 2.051 4.302-1.435.51-2.095 1.895-3.19 2.717-4 3-7.232 7.374-9.8 11.773h.683c1.569-1.22 7.973-1.811 10.712-1.132 7.222 1.792 9.252 4.27 10.94 11.547.234 1.011.543 3.392.227 4.755-2.183 9.442-6.79 14.21-16.41 16.302-2.57.559-5.133-.337-7.292-.453z"></path>
      </g>
    </g>
  </symbol>
  <symbol xmlns="http://www.w3.org/2000/svg" viewBox="0 0 32 32" id="behance">
    <g>
      <g>
        <path fill="#0188f5" d="M16 0c8.837 0 16 7.163 16 16s-7.163 16-16 16C7.164 32 0 24.837 0 16S7.164 0 16 0zM6 21.771h5.964c2.224 0 4.344-1.016 4.344-3.392 0-1.457-.758-2.555-2.258-2.965 1.07-.491 1.672-1.293 1.672-2.441 0-2.179-1.585-2.973-3.93-2.973H6zm2.475-9.797h2.766c.964 0 1.861.23 1.861 1.344 0 .982-.707 1.391-1.655 1.391H8.475zm0 4.685h3.18c1.154 0 1.869.475 1.869 1.67 0 1.214-.853 1.54-1.922 1.54H8.475zm17.353 1.171c.172-2.605-1.293-4.758-4.327-4.758-2.705 0-4.576 1.933-4.576 4.473 0 2.62 1.767 4.455 4.576 4.455 2.018 0 3.587-1.048 4.275-3.048h-2.154c-.155.525-1.052 1.295-2.035 1.295-1.361 0-2.12-.942-2.188-2.417zM19.4 16.307c.034-.655.482-1.482 2.033-1.482 1.19 0 1.725.303 1.949 1.482zm4.756-5.516h-4.931v1.573h4.931z"></path>
        <path fill="#ebebeb" d="M16 0c8.837 0 16 7.163 16 16s-7.163 16-16 16C7.164 32 0 24.837 0 16S7.164 0 16 0zM6 21.771h5.964c2.224 0 4.344-1.016 4.344-3.392 0-1.457-.758-2.555-2.258-2.965 1.07-.491 1.672-1.293 1.672-2.441 0-2.179-1.585-2.973-3.93-2.973H6zm2.475-9.797h2.766c.964 0 1.861.23 1.861 1.344 0 .982-.707 1.391-1.655 1.391H8.475zm0 4.685h3.18c1.154 0 1.869.475 1.869 1.67 0 1.214-.853 1.54-1.922 1.54H8.475zm17.353 1.171c.172-2.605-1.293-4.758-4.327-4.758-2.705 0-4.576 1.933-4.576 4.473 0 2.62 1.767 4.455 4.576 4.455 2.018 0 3.587-1.048 4.275-3.048h-2.154c-.155.525-1.052 1.295-2.035 1.295-1.361 0-2.12-.942-2.188-2.417zM19.4 16.307c.034-.655.482-1.482 2.033-1.482 1.19 0 1.725.303 1.949 1.482zm4.756-5.516h-4.931v1.573h4.931z"></path>
      </g>
    </g>
  </symbol>
  <symbol xmlns="http://www.w3.org/2000/svg" viewBox="0 0 32 32" id="linked-in">
    <g>
      <g>
        <path fill="#005a87" d="M16 0c8.837 0 16 7.163 16 16s-7.163 16-16 16C7.164 32 0 24.837 0 16S7.164 0 16 0zM7.484 7.46a1.484 1.484 0 0 0-.476 1.108c0 .45.16.834.481 1.15a1.6 1.6 0 0 0 1.164.472c.442 0 .822-.155 1.14-.464.318-.31.477-.683.477-1.122 0-.444-.16-.823-.482-1.135a1.598 1.598 0 0 0-1.154-.47c-.449 0-.832.154-1.15.46zM7 23h3.275V10.993H7zm5.73 0l3.258-.002V18.64c0-1.282.054-2.117.163-2.502.208-.74.582-1.319 1.121-1.738.539-.419 1.184-.628 1.936-.628.58 0 1.067.126 1.46.38.395.252.671.62.83 1.103.158.484.238 1.46.238 2.933v4.81H25v-7.56c0-1.42-.49-2.494-1.351-3.219-1.025-.854-2.035-1.281-3.504-1.281-.717 0-1.181.115-1.866.347-.684.231-1.43.718-2.274 1.309v-1.6H12.73z"></path>
        <path fill="#ebebeb" d="M16 0c8.837 0 16 7.163 16 16s-7.163 16-16 16C7.164 32 0 24.837 0 16S7.164 0 16 0zM7.484 7.46a1.484 1.484 0 0 0-.476 1.108c0 .45.16.834.481 1.15a1.6 1.6 0 0 0 1.164.472c.442 0 .822-.155 1.14-.464.318-.31.477-.683.477-1.122 0-.444-.16-.823-.482-1.135a1.598 1.598 0 0 0-1.154-.47c-.449 0-.832.154-1.15.46zM7 23h3.275V10.993H7zm5.73 0l3.258-.002V18.64c0-1.282.054-2.117.163-2.502.208-.74.582-1.319 1.121-1.738.539-.419 1.184-.628 1.936-.628.58 0 1.067.126 1.46.38.395.252.671.62.83 1.103.158.484.238 1.46.238 2.933v4.81H25v-7.56c0-1.42-.49-2.494-1.351-3.219-1.025-.854-2.035-1.281-3.504-1.281-.717 0-1.181.115-1.866.347-.684.231-1.43.718-2.274 1.309v-1.6H12.73z"></path>
      </g>
    </g>
  </symbol>
  <symbol xmlns="http://www.w3.org/2000/svg" viewBox="0 0 32 32" id="facebook">
    <g>
      <g>
        <path fill="#4463b1" d="M16 0c8.837 0 16 7.163 16 16s-7.163 16-16 16C7.164 32 0 24.837 0 16S7.164 0 16 0zm2.126 6C14.252 6 15 10 15 10v3h-2v4h2v9h4v-9h2l1-4h-3v-2c0-.82 1-1 1-1h2V6h-3.874z"></path>
        <path fill="#ebebeb" d="M16 0c8.837 0 16 7.163 16 16s-7.163 16-16 16C7.164 32 0 24.837 0 16S7.164 0 16 0zm2.126 6C14.252 6 15 10 15 10v3h-2v4h2v9h4v-9h2l1-4h-3v-2c0-.82 1-1 1-1h2V6h-3.874z"></path>
      </g>
    </g>
  </symbol>
  <symbol xmlns="http://www.w3.org/2000/svg" viewBox="0 0 32 32" id="google+">
    <g>
      <g>
        <path fill="#da4935" d="M16 0c8.837 0 16 7.166 16 16.004 0 8.84-7.163 16.006-16 16.006-.555 0-1.103-.029-1.643-.084 2.56-1.258 3.889-3.45 3.889-5.625 0-2.447-1.367-3.652-2.873-4.963l-1.232-.994c-.376-.318-.89-.743-.89-1.523 0-.78.514-1.276.96-1.737 1.435-1.17 2.872-2.41 2.872-5.033 0-2.695-1.642-4.113-2.429-4.786h2.121l2.19-1.276h-7.047c-1.848 0-4.173.284-6.123 1.95-1.471 1.311-2.19 3.119-2.19 4.75 0 2.765 2.053 5.565 5.679 5.565.342 0 .718-.036 1.095-.071-.172.425-.342.78-.342 1.383 0 1.098.546 1.772 1.025 2.41-1.538.106-4.412.283-6.533 1.63a5.857 5.857 0 0 0-1.679 1.52A15.935 15.935 0 0 1 0 16.003C0 7.166 7.163 0 16 0zm-3.775 23.004c2.601 1.914 3.729 2.87 3.729 4.68 0 1.982-1.42 3.502-4.11 3.78a15.976 15.976 0 0 1-6.922-3.911 3.91 3.91 0 0 1-.017-.366c0-2.517 2.19-3.368 2.942-3.651 1.437-.497 3.284-.569 3.592-.569.341 0 .513 0 .786.037zm.994-6.735c-.548.567-1.473.992-2.328.992-2.942 0-4.276-3.935-4.276-6.31 0-.92.17-1.878.753-2.622.548-.71 1.505-1.17 2.394-1.17 2.84 0 4.311 3.97 4.311 6.522 0 .638-.07 1.773-.854 2.588zM21.906 14h2v-3h3V9h-3V6h-2v3h-3v2h3z"></path>
        <path fill="#ebebeb" d="M16 0c8.837 0 16 7.166 16 16.004 0 8.84-7.163 16.006-16 16.006-.555 0-1.103-.029-1.643-.084 2.56-1.258 3.889-3.45 3.889-5.625 0-2.447-1.367-3.652-2.873-4.963l-1.232-.994c-.376-.318-.89-.743-.89-1.523 0-.78.514-1.276.96-1.737 1.435-1.17 2.872-2.41 2.872-5.033 0-2.695-1.642-4.113-2.429-4.786h2.121l2.19-1.276h-7.047c-1.848 0-4.173.284-6.123 1.95-1.471 1.311-2.19 3.119-2.19 4.75 0 2.765 2.053 5.565 5.679 5.565.342 0 .718-.036 1.095-.071-.172.425-.342.78-.342 1.383 0 1.098.546 1.772 1.025 2.41-1.538.106-4.412.283-6.533 1.63a5.857 5.857 0 0 0-1.679 1.52A15.935 15.935 0 0 1 0 16.003C0 7.166 7.163 0 16 0zm-3.775 23.004c2.601 1.914 3.729 2.87 3.729 4.68 0 1.982-1.42 3.502-4.11 3.78a15.976 15.976 0 0 1-6.922-3.911 3.91 3.91 0 0 1-.017-.366c0-2.517 2.19-3.368 2.942-3.651 1.437-.497 3.284-.569 3.592-.569.341 0 .513 0 .786.037zm.994-6.735c-.548.567-1.473.992-2.328.992-2.942 0-4.276-3.935-4.276-6.31 0-.92.17-1.878.753-2.622.548-.71 1.505-1.17 2.394-1.17 2.84 0 4.311 3.97 4.311 6.522 0 .638-.07 1.773-.854 2.588zM21.906 14h2v-3h3V9h-3V6h-2v3h-3v2h3z"></path>
      </g>
    </g>
  </symbol>
  <symbol xmlns="http://www.w3.org/2000/svg" viewBox="0 0 32 32" id="twitter">
    <g>
      <g>
        <path fill="#4e9edc" d="M16 0c8.837 0 16 7.163 16 16s-7.163 16-16 16S0 24.837 0 16 7.164 0 16 0zm9.897 10.205a6.891 6.891 0 0 1-2.121.636c.762-.5 1.348-1.292 1.623-2.235a7.034 7.034 0 0 1-2.345.98c-.673-.785-1.633-1.276-2.696-1.276-2.04 0-3.693 1.81-3.693 4.04 0 .316.033.625.096.921-3.07-.169-5.791-1.777-7.613-4.22-.317.596-.5 1.29-.5 2.03 0 1.401.652 2.638 1.643 3.362a3.442 3.442 0 0 1-1.672-.505v.05c0 1.958 1.272 3.59 2.962 3.962a3.414 3.414 0 0 1-1.668.069c.47 1.605 1.834 2.773 3.45 2.805-1.264 1.084-2.856 1.73-4.587 1.73-.298 0-.592-.02-.88-.057 1.634 1.146 3.575 1.815 5.66 1.815 6.794 0 10.509-6.155 10.509-11.494 0-.175-.004-.349-.011-.522a7.919 7.919 0 0 0 1.843-2.091"></path>
        <path fill="#ebebeb" d="M16 0c8.837 0 16 7.163 16 16s-7.163 16-16 16S0 24.837 0 16 7.164 0 16 0zm9.897 10.205a6.891 6.891 0 0 1-2.121.636c.762-.5 1.348-1.292 1.623-2.235a7.034 7.034 0 0 1-2.345.98c-.673-.785-1.633-1.276-2.696-1.276-2.04 0-3.693 1.81-3.693 4.04 0 .316.033.625.096.921-3.07-.169-5.791-1.777-7.613-4.22-.317.596-.5 1.29-.5 2.03 0 1.401.652 2.638 1.643 3.362a3.442 3.442 0 0 1-1.672-.505v.05c0 1.958 1.272 3.59 2.962 3.962a3.414 3.414 0 0 1-1.668.069c.47 1.605 1.834 2.773 3.45 2.805-1.264 1.084-2.856 1.73-4.587 1.73-.298 0-.592-.02-.88-.057 1.634 1.146 3.575 1.815 5.66 1.815 6.794 0 10.509-6.155 10.509-11.494 0-.175-.004-.349-.011-.522a7.919 7.919 0 0 0 1.843-2.091"></path>
      </g>
    </g>
  </symbol>

  <symbol id="arrowNext" width="15" height="23" viewBox="0 0 15 23" fill="none">
    <path d="M0.999998 21.9929L13.261 12.0764L1.54398 0.99991" stroke="white"/>
  </symbol>

  <symbol id="arrowPrev" width="15" height="23" viewBox="0 0 14 23" fill="none">
    <path d="M13 1L1 11.2308L13 22" stroke="white"/>
  </symbol>

  <symbol xmlns="http://www.w3.org/2000/svg" viewBox="0 0 384 512" id="location">
    <path d="M168.3 499.2C116.1 435 0 279.4 0 192C0 85.96 85.96 0 192 0C298 0 384 85.96 384 192C384 279.4 267 435 215.7 499.2C203.4 514.5 180.6 514.5 168.3 499.2H168.3zM192 256C227.3 256 256 227.3 256 192C256 156.7 227.3 128 192 128C156.7 128 128 156.7 128 192C128 227.3 156.7 256 192 256z"></path>
  </symbol>
</svg>